<?xml version="1.0" encoding="utf-8"?>
<svg xmlns="http://www.w3.org/2000/svg" height="256" width="256" viewBox="0 0 256 256">
  <g>
    <path id="path1" transform="rotate(0,128,128) translate(55.0212881463584,11) scale(7.31249651312994,7.31249651312994)  " fill="#000000" d="M12.135973,17.653134L15.145003,17.653134C15.546004,17.653134,15.846968,17.953123,15.846968,18.355133L15.846968,21.664147C15.846968,22.066157,15.546004,22.367154,15.145003,22.367154L14.944991,22.367154 14.944991,27.081206C14.944991,27.382202 14.744003,27.582184 14.442978,27.582184 14.142014,27.582184 13.942002,27.382202 13.942002,27.081206L13.942002,22.367154 13.239976,22.367154 13.239976,27.081206C13.239976,27.382202 13.038987,27.582184 12.737963,27.582184 12.436999,27.582184 12.236986,27.382202 12.236986,27.081206L12.236986,22.367154 12.035998,22.367154C11.634998,22.367154,11.333972,22.066157,11.333972,21.664147L11.333972,18.355133C11.434009,18.054137,11.734973,17.653134,12.135973,17.653134z M4.9149729,17.653134L7.9240028,17.653134C8.3250038,17.653134,8.6259672,17.953123,8.6259672,18.355133L8.6259672,21.664147C8.6259672,22.066157,8.3250038,22.367154,7.9240028,22.367154L7.723014,22.367154 7.723014,27.081206C7.723014,27.382202 7.5230023,27.582184 7.2219769,27.582184 6.921013,27.582184 6.7200247,27.382202 6.7200247,27.081206L6.7200247,22.367154 6.0179989,22.367154 6.0179989,27.081206C6.0179989,27.382202 5.8179871,27.582184 5.5170228,27.582184 5.2159979,27.582184 5.0150091,27.382202 5.0150091,27.081206L5.0150091,22.367154 4.9149729,22.367154C4.5139724,22.367154,4.2130081,22.066157,4.2130081,21.664147L4.2130081,18.355133C4.2130081,18.054137,4.5139724,17.653134,4.9149729,17.653134z M13.640977,15.546124C14.142014,15.546124 14.543991,15.947128 14.543991,16.449114 14.543991,16.950125 14.142014,17.352137 13.640977,17.352137 13.138963,17.352137 12.737963,16.950125 12.737963,16.449114 12.737963,15.947128 13.138963,15.546124 13.640977,15.546124z M6.4189994,15.546124C6.921013,15.546124 7.3220135,15.947128 7.3220135,16.449114 7.3220135,16.950125 6.921013,17.352137 6.4189994,17.352137 5.9180233,17.352137 5.5170228,16.950125 5.5170228,16.449114 5.5170228,15.947128 5.9180233,15.546124 6.4189994,15.546124z M3.3099939,13.239102C2.7080049,13.239102,2.1060158,13.741089,2.1060158,14.44312L2.1060158,28.786204C2.1060158,29.387221,2.6080295,29.989214,3.3099939,29.989214L16.650006,29.989214C17.251996,29.989214,17.853007,29.488203,17.853007,28.786204L17.853007,14.44312C17.853007,13.841096,17.351972,13.239102,16.650006,13.239102z M3.3099939,11.033094L16.650006,11.033094C18.454997,11.033094,19.96,12.537101,19.96,14.343113L19.96,28.685189C19.96,30.491202,18.454997,31.995209,16.650006,31.995209L3.3099939,31.995209C1.5050033,32.096222,3.2352546E-08,30.591208,0,28.786204L0,14.44312C3.2352546E-08,12.537101,1.5050033,11.033094,3.3099939,11.033094z M5.8179871,0.10000663L6.1179744,0.10000663C6.5200125,0.30099688 6.8209764,0.5010104 7.0209886,0.90302132 7.723014,1.7050285 8.3250038,2.5070358 9.0269682,3.3100196 9.3279926,3.6110471 9.7289936,4.0120505 9.7289936,4.5130304 9.7289936,5.0150484 9.228017,5.6170419 8.5259916,5.4160517 8.2249672,5.3160451 8.0239784,4.9150413 7.8229896,4.7140511 7.5230023,4.4130238 7.3220135,4.112027 7.1210252,3.8110298 7.1210252,3.81103 7.0209886,3.7110232 7.0209886,3.8110298L7.0209886,6.1180523C7.0209886,7.0210432 7.2219769,8.1240781 6.921013,8.7260717 6.5200125,9.5280784 5.0150091,9.4280723 4.9149729,8.4250749 4.8149974,7.7230738 4.9149729,6.820053 4.9149729,6.1180523L4.9149729,3.8110298C4.7139842,4.0120505 4.4130203,4.3130477 4.2130081,4.6140445 3.9119832,4.9150413 3.7109946,5.4160517 3.3099939,5.4160517 2.6080295,5.5160588 2.1060158,4.8140276 2.3070041,4.2130407 2.3070044,3.9120439 2.7080049,3.4100264 3.0090298,3.1090299 3.6110191,2.5070358 4.2130081,1.7050285 4.7139842,1.0030279 5.1149847,0.6020243 5.4160101,0.20102062 5.8179871,0.10000663z M14.041977,0C14.543991,0 15.044967,0.30099688 15.145003,0.90302132 15.246017,1.6050217 15.145003,2.5070358 15.145003,3.2100431L15.145003,5.5160588C15.345992,5.3160451 15.647017,5.0150484 15.947981,4.6140445 16.147992,4.3130477 16.448957,3.9120439 16.849958,3.8110298 17.551984,3.7110232 18.053996,4.4130238 17.853007,5.0150484 17.752971,5.4160517 17.351972,5.8170556 17.051007,6.1180523 16.448957,6.820053 15.846968,7.5220536 15.345992,8.2240537 15.044967,8.6260646 14.643966,9.1270755 14.242966,9.1270755L13.942002,9.1270755C13.541001,9.0270685 13.340013,8.7260717 13.038987,8.4250749 12.336962,7.6230672 11.734973,6.820053 11.033008,6.0180458 10.731983,5.7170485 10.330982,5.3160451 10.330982,4.8140276 10.330982,4.3130477 10.83202,3.7110232 11.535022,3.9120441 11.83501,4.0120505 12.135973,4.3130477 12.336962,4.6140445 12.538012,4.9150413 12.837999,5.2160381 13.038987,5.4160517 13.038987,5.4160517 13.138963,5.5160588 13.138963,5.4160517L13.138963,3.1090299C13.138963,2.2070154 12.939012,1.1030042 13.239976,0.50101016 13.340013,0.20102062 13.640977,0 14.041977,0z" />
  </g>
</svg>

