<?xml version="1.0" encoding="utf-8"?>
<svg xmlns="http://www.w3.org/2000/svg" height="256" width="256" viewBox="0 0 256 256">
  <g>
    <path id="path1" transform="rotate(0,128,128) translate(28.0033972084734,11) scale(7.31182012323187,7.31182012323187)  " fill="#000000" d="M0.34399033,18.002976L5.3439894,18.002976C5.8969898,18.002976,6.3439894,18.449976,6.3439894,19.002976L6.3439894,23.002976 10.343989,23.002976C10.89699,23.002976,11.343989,23.449976,11.343989,24.002975L11.343989,28.002975 15.34399,28.002975C15.89699,28.002975,16.34399,28.449976,16.34399,29.002975L16.34399,32.002976 14.34399,32.002976 14.34399,30.002975 10.343989,30.002975C9.7909899,30.002975,9.3439894,29.555976,9.3439894,29.002975L9.3439894,25.002975 5.3439894,25.002975C4.7909889,25.002975,4.3439903,24.555976,4.3439903,24.002975L4.3439903,20.002976 0.34399033,20.002976z M22.403048,15.053979L27.352041,20.002964 22.403048,24.951979 20.989041,23.537974 23.523997,21.003001 13.345002,21.003001 13.345002,19.003001 23.524064,19.003001 20.989041,16.467983z M10.672996,5.4399958L5.8929977,13.440989C5.6899977,13.726989,5.4009981,13.990989,5.0929985,13.990989L1,13.990989 1,14.974988 5.9139977,14.994988 7.3609972,13.335989C7.6769972,12.941989,8.2969971,12.86699,8.7099962,13.168989L10.586996,14.406988C10.989995,14.699988,11.112995,15.218988,10.875996,15.626987L9.574996,17.875985 10.658996,18.628985 12.897994,14.652988 9.9919958,12.65199C9.5689964,12.35999,9.4629965,11.79899,9.7499962,11.376991L12.463995,6.9219942 11.673995,5.6309958z M7.4829969,3.5829973C7.5509968,3.5809975,7.6189966,3.5859976,7.685997,3.5989971L12.036995,4.4269962C12.292994,4.4739962,12.519995,4.7449961,12.658995,4.9629965L15.049994,8.990993 18.246991,8.990993C18.591992,8.990993 18.871992,9.1449928 18.871992,9.4909925 18.871992,9.8369923 18.591992,9.9909921 18.246991,9.9909921L14.883994,9.9909921C14.555994,9.9909921,14.256994,9.8349919,14.082994,9.5629921L13.196994,8.1179934 10.956995,11.79599 13.853994,13.790989C14.249994,14.061989,14.371994,14.582988,14.136994,14.999987L11.589995,19.528984C11.462996,19.753984 11.244995,19.919983 10.992995,19.981984 10.916995,20.000984 10.838996,20.010983 10.760996,20.010983 10.578996,20.010983 10.399996,19.959983 10.244996,19.861984L8.6309967,18.736984C8.2329969,18.484985,8.0989971,17.939985,8.3469963,17.511986L9.6499958,15.268987 8.2529964,14.334989 6.9779978,15.769987C6.7979975,15.990987,6.5289974,15.990987,6.2399979,15.990987L6.2339973,15.990987 1.0050011,16.096987C0.48400116,16.092987,0,15.799987,0,15.285988L0,13.444989C0,12.927989,0.54800034,12.990989,1.0720005,12.99099L4.9279976,12.99099 9.3619967,5.4329958 7.5819969,4.9739962 3.9279995,7.7489939C3.6559982,7.9609938 3.2629986,7.8809938 3.0509987,7.6079941 2.8400002,7.3349943 2.8889999,6.9269943 3.1619987,6.7149944L6.9209976,3.7899971C7.0839977,3.6639977,7.2809973,3.5879974,7.4829969,3.5829973z M14.357994,1.2509995C13.630994,1.2509995 13.038994,1.8119984 13.038994,2.5009985 13.038994,3.1909981 13.630994,3.751997 14.357994,3.751997 15.084993,3.751997 15.676993,3.1909981 15.676993,2.5009985 15.676993,1.8119984 15.084993,1.2509995 14.357994,1.2509995z M14.357994,0C15.774993,0 16.926992,1.1219997 16.926992,2.5009985 16.926992,3.8809967 15.774993,5.0029964 14.357994,5.0029964 12.940994,5.0029964 11.788995,3.8809967 11.788995,2.5009985 11.788995,1.1219997 12.940994,0 14.357994,0z" />
  </g>
</svg>

