<?xml version="1.0" encoding="utf-8"?>
<svg xmlns="http://www.w3.org/2000/svg" height="256" width="256" viewBox="0 0 256 256">
  <g>
    <path id="path1" transform="rotate(0,128,128) translate(25.6241221795738,11) scale(7.31250392273279,7.31250392273279)  " fill="#000000" d="M12,19L12,27.381983 16,29.381983 16,19z M3.0318278,6L11.492911,16.999983 16.508988,16.999983 24.970072,6z M1.9999999,1.9999998L1.9999999,3.9999998 26,3.9999998 26,1.9999998z M0.99999994,0L27,0C27.553,0,28,0.44700003,28,1L28,4.9596564 28.000225,4.9617268 28,4.9692433 28,5.0000001 27.997751,5.0446364 27.996132,5.0990068 27.988169,5.1462051 27.979714,5.2017404 27.977051,5.2121109 27.97329,5.2344127 27.962687,5.2680899 27.955103,5.2976351 27.942669,5.331661 27.931887,5.3659067 27.924439,5.3815475 27.921517,5.3895469C27.908878,5.4194648,27.894829,5.4486357,27.87945,5.4769763L27.877363,5.480414 27.872107,5.4914516 27.855072,5.517136 27.829405,5.5594238 27.808293,5.5876713 27.79414,5.6090091 18,18.341242 18,30.999983C18,31.346983 17.82,31.667984 17.525,31.850983 17.365,31.949984 17.183001,31.999983 17,31.999983 16.847,31.999983 16.694,31.964983 16.553,31.894983L10.553001,28.894983C10.214,28.724983,10,28.378983,10,27.999983L10,18.338694 0.23308867,5.6418576 0.22812021,5.6363901C0.16702259,5.5623311,0.11639465,5.4793007,0.07848449,5.3895469L0.071047336,5.3691953 0.06947466,5.3659067 0.067088969,5.3583635 0.04489658,5.2976351 0.032049216,5.2475735 0.027886852,5.2344127 0.026357243,5.2253938 0.020287025,5.2017404C0.013635861,5.169167,0.0085640836,5.1360132,0.0051550839,5.1023623L0.0050132058,5.0995451 0.0049219106,5.0990068 0.0048244695,5.0957974 0,5.0000001 0,1C1.1894275E-07,0.44700003,0.44700012,0,0.99999994,0z" />
  </g>
</svg>

