<?xml version="1.0" encoding="utf-8"?>
<svg xmlns="http://www.w3.org/2000/svg" height="256" width="256" viewBox="0 0 256 256">
  <g>
    <path id="path1" transform="rotate(0,128,128) translate(13.9249972105026,11) scale(7.3125,7.3125)  " fill="#000000" d="M8.2000085,9.5999985L8.2000085,11.599998C4.4999982,12.899998 1.9000236,16.399998 1.9000234,20.5 1.9000236,25.799995 6.2000094,30 11.40002,30 16.299981,30 20.400016,26.199997 20.799979,21.400002L22.799977,21.400002C22.400016,27.400002 17.499993,32 11.499995,32 5.1000343,32 -9.5129508E-08,26.900002 0,20.5 -9.5129508E-08,15.299999 3.4999984,11 8.2000085,9.5999985z M11.100032,7.0999985L15.10003,7.0999985 15.10003,11 22.799977,11 22.799977,13 15.10003,13 15.10003,16.799999 22.799977,16.799999 31.2,25.099998 29.799975,26.5 22.100028,18.799995 15.10003,18.799995 11.100032,18.799995 11.100032,16.799999z M13.100031,0C14.60003,0 15.900018,1.2000008 15.900018,2.7999992 15.900018,4.2999992 14.700006,5.5999985 13.100031,5.5999985 11.600032,5.5999985 10.299983,4.3999977 10.299983,2.7999992 10.299983,1.2000008 11.600032,0 13.100031,0z" />
  </g>
</svg>

