<?xml version="1.0" encoding="utf-8"?>
<svg xmlns="http://www.w3.org/2000/svg" height="256" width="256" viewBox="0 0 256 256">
  <g>
    <path id="path1" transform="rotate(0,128,128) translate(11,12.1189704027599) scale(7.31248953939981,7.31248953939981)  " fill="#000000" d="M25.583003,22.060012C26.411002,22.060012 27.083003,22.732013 27.083003,23.560012 27.083003,24.388013 26.411002,25.060012 25.583003,25.060012 24.755002,25.060012 24.083003,24.388013 24.083003,23.560012 24.083003,22.732013 24.755002,22.060012 25.583003,22.060012z M6.5520084,22.060012C7.3800085,22.060012 8.0520084,22.732013 8.0520084,23.560012 8.0520084,24.388013 7.3800085,25.060012 6.5520084,25.060012 5.7240083,25.060012 5.0520084,24.388013 5.0520084,23.560012 5.0520084,22.732013 5.7240083,22.060012 6.5520084,22.060012z M5.0000002,20.694002C3.3459999,20.694002 2,22.040002 2,23.694002 2,25.348001 3.3459999,26.694002 5.0000002,26.694002L27.000001,26.694002C28.654,26.694002 30.000001,25.348001 30.000001,23.694002 30.000001,22.040002 28.654,20.694002 27.000001,20.694002z M12.266,12.694003C8.918968,12.694003,6.1763165,15.332056,6.0081694,18.63713L6.006726,18.694002 25.993275,18.694002 25.991832,18.63713C25.823685,15.332056,23.081063,12.694003,19.734999,12.694003z M12.266,10.694007L19.734999,10.694007C24.221781,10.694007,27.88395,14.286062,27.997296,18.745969L27.997908,18.794244 28.006406,18.795766C30.282704,19.262782 32.000001,21.281627 32.000001,23.694002 32.000001,26.451002 29.757001,28.694002 27.000001,28.694002L26.97806,28.694002 26.97806,31.694002 21.969094,31.694002 21.969094,28.69403 23.969081,28.69403 23.969081,29.694021 24.978074,29.694021 24.978074,28.694002 10.009011,28.694002 10.009011,31.694002 5.0000441,31.694002 5.0000441,28.69403 7.0000307,28.69403 7.0000307,29.694021 8.0090244,29.694021 8.0090244,28.694002 5.0000002,28.694002C2.243,28.694002 0,26.451002 0,23.694002 0,21.281627 1.717297,19.262782 3.9935956,18.795766L4.0020916,18.794244 4.0027049,18.745969C4.1160824,14.286062,7.7792189,10.694007,12.266,10.694007z M16.057053,0L32.000046,8.228968 31.082078,10.006 16.051072,2.2480372 0.90812766,9.9559511 4.6253272E-05,8.1729998z" />
  </g>
</svg>

