<?xml version="1.0" encoding="utf-8"?>
<svg xmlns="http://www.w3.org/2000/svg" height="256" width="256" viewBox="0 0 256 256">
  <g>
    <path id="path1" transform="rotate(0,128,128) translate(11,11.4676945736362) scale(7.30793069642749,7.30793069642749)  " fill="#000000" d="M1.9999999,22.893018L1.9999999,26.89201 30,26.89201 30,22.893018z M5.649756,13.893018L2.5391829,20.89201 29.461523,20.89201 26.35095,13.893018z M18,7.893013L23,7.893013C23.552,7.893013 24,8.3410132 24,8.8930132 24,9.4450133 23.552,9.8930132 23,9.8930135L18,9.8930135C17.448,9.8930132 17,9.4450133 17,8.8930132 17,8.3410132 17.448,7.893013 18,7.893013z M9,7.893013L14,7.893013C14.552,7.893013 15,8.3410132 15,8.8930132 15,9.4450133 14.552,9.8930132 14,9.8930135L9,9.8930135C8.448,9.8930132 8,9.4450133 8,8.8930132 8,8.3410132 8.448,7.893013 9,7.893013z M16,1.9951801C12.67525,1.9951801,9.3505001,3.4448786,6,6.3442774L6,11.892083 26,11.892083 26,6.3442774C22.6495,3.4448786,19.324749,1.9951801,16,1.9951801z M16,0C19.914249,0 23.828499,1.7154398 27.667,5.1463194 27.879,5.3363128 28,5.6073036 28,5.8922935L28,12.680574 31.839998,21.32002C31.953999,21.482007 32.020008,21.680005 32.020008,21.893018 32.020008,21.927518 32.018261,21.961612 32.014854,21.995215L32,22.092641 32,27.89201C32,28.44501,31.552,28.892011,31,28.892011L28,28.892011 28,31.892011 26,31.892011 26,28.892011 6,28.892011 6,31.892011 3.9999998,31.892011 3.9999998,28.892011 1.0000002,28.892011C0.44800001,28.892011,0,28.44501,0,27.89201L0,21.89201 0.001304965,21.866197 0.0010124812,21.848816 0.0032263889,21.828185 0.0051659439,21.789813 0.012485676,21.741896 0.01418905,21.726023 0.016240731,21.717314 0.02032835,21.690557C0.033656251,21.625479,0.053312503,21.562697,0.078625217,21.502885L0.091751687,21.475649 3.9999998,12.682172 3.9999998,5.8922935C4,5.6073036 4.1209998,5.3363128 4.3330002,5.1463194 8.1715002,1.7154398 12.085751,0 16,0z" />
  </g>
</svg>

