<?xml version="1.0" encoding="utf-8"?>
<svg xmlns="http://www.w3.org/2000/svg" height="256" width="256" viewBox="0 0 256 256">
  <g>
    <path id="path1" transform="rotate(0,128,128) translate(51.5990303636753,11) scale(7.31249912828217,7.31249912828217)  " fill="#000000" d="M9.0828844,16.189948L7.8838778,16.788961 8.5828834,17.987949C7.3838773,18.887956 7.0838895,20.186948 7.6838961,21.285945 8.2839027,22.485938 9.5828844,22.585944 11.08191,22.385947 12.18091,22.185937 12.68091,22.285943 12.980898,22.784934 13.27991,23.284932 12.880892,23.784932 12.18091,24.183933 11.381897,24.583942 10.581909,24.783937 9.8829036,24.783937L10.28189,26.382932C10.881897,26.382932,11.780885,26.182937,12.580904,25.782928L13.180911,26.982938 14.379886,26.382932 13.679904,25.08394C14.978886,24.084934 15.178898,22.784934 14.679905,21.685937 14.079898,20.586942 13.180911,20.186948 11.381897,20.486951 10.181884,20.686948 9.5828844,20.586942 9.3829027,20.286939 9.1828905,19.986951 9.2828966,19.486953 10.081909,18.987947 10.981904,18.487947 11.680909,18.487947 12.080904,18.487947L11.680909,16.888952C11.181885,16.888952,10.481903,16.988958,9.6828914,17.488958z M4.1858764,7.8949702C4.3858886,7.8949702 4.785883,7.9949758 5.1858774,7.9949758 5.4848891,7.9949758 5.6849013,8.0949815 5.9848895,8.0949815L5.9848895,8.2949784C5.884883,8.6939795 5.5848952,9.2939685 5.2858835,9.8939736 4.6858769,10.09397 4.0859008,10.592962 3.8858886,11.292972 3.5868769,12.391969 4.1858764,13.590956 5.2858835,13.990964 6.3848834,14.290966 7.58389,13.690961 7.9838844,12.591965 8.0838905,12.191972 8.0838905,11.692965 7.9838844,11.292972 8.2839027,10.592962 8.6828905,9.7939675 8.8829027,9.2939685 8.8829027,9.0939725 8.8829027,8.9939664 8.9829088,8.8939755 11.08191,9.3939746 12.980898,9.9939645 13.080905,10.192969L20.675912,24.283939C21.174905,25.183931,20.775919,26.282928,19.9759,26.682935L10.581909,31.779924C9.6828914,32.278917,8.5828834,31.879915,8.1838966,31.079929L0.48888196,16.888952C0.18887858,16.289954 1.9878915,11.59296 3.0868764,9.1939786 3.4869011,8.1949723 3.686883,7.8949702 4.1858764,7.8949702z M4.5859013,0L5.2858835,0C6.5848961,0.19999647 7.7839022,0.8989847 8.4838844,1.9989882 9.1828905,2.997994 9.4829088,4.2969868 9.2828966,5.6959856 8.7828966,9.6939767 6.5848961,12.291963 6.48489,12.391969 6.2848773,12.591965 6.0848957,12.691971 5.884883,12.691971 5.6849013,12.691971 5.5848952,12.591965 5.3848825,12.491959 5.0859018,12.191972 4.9858957,11.692965 5.2858835,11.392963 5.2858835,11.392963 7.1838956,8.9939664 7.6838961,5.4959739 7.7839022,4.4969833 7.58389,3.5979834 7.1838956,2.8979879 6.6849022,2.1989846 5.9848895,1.6989858 5.0859018,1.5989952 3.386895,1.3989835 1.7878792,2.5979858 1.587882,4.2969868 1.487891,4.9969819 1.587882,6.8959797 1.587882,7.5949829 1.587882,7.9949758 1.2878787,8.3949692 0.88788454,8.3949692 0.48888193,8.3949692 0.088887643,8.0949815 0.088887569,7.6949737 0.088887643,7.3949712 -0.1111095,5.096988 0.088887569,4.0969904 0.38889099,1.6989858 2.386894,0 4.5859013,0z" />
  </g>
</svg>

